/* XPM */
static char *default[] = {
/* width height num_colors chars_per_pixel */
"    32    32       12            1",
/* colors */
". c #000000",
"# c #ffffff",
"a c #c7c7c7",
"b c #aaaaaa",
"c c #e3e3e3",
"d c #727272",
"e c #1d1d1d",
"f c #393939",
"g c #010101",
"h c #555555",
"i c #020202",
"j c #8e8e8e",
/* pixels */
"................................",
".##############################.",
".#############################..",
".#############################..",
".#############################..",
".#############################..",
".#############################..",
".#############abbb############..",
".##########cde.....fc#########..",
"g#########be..fhf....a########..",
"i########c...j###j...f########..",
"i########d...b####....########..",
"g########h...b####....########..",
".########cf.h####j...h########..",
".###############b....c########..",
".##############h....b#########..",
".#############d...dc##########..",
".#############..hc############..",
".#############..a#############..",
".#############################..",
".############cjj##############..",
".###########c...d#############..",
".###########d...h#############..",
".###########j...b#############..",
".############jhb##############..",
".#############################..",
".#############################..",
".#############################..",
".#############################..",
".#############################..",
".#..............................",
"................................"
};
